<?xml version="1.0"?><!DOCTYPE svg  PUBLIC '-//W3C//DTD SVG 1.1//EN'  'http://www.w3.org/Graphics/SVG/1.1/DTD/svg11.dtd'><svg height="100%" style="fill-rule:evenodd;clip-rule:evenodd;stroke-linejoin:round;stroke-miterlimit:2;" version="1.1" viewBox="0 0 100 100" width="100%" xml:space="preserve" xmlns="http://www.w3.org/2000/svg" xmlns:serif="http://www.serif.com/" xmlns:xlink="http://www.w3.org/1999/xlink"><g id="Layer2"><path d="M29.711,41.81c4.967,12.419 12.382,30.957 17.99,44.976c1.541,3.852 5.43,6.233 9.562,5.854c4.131,-0.379 7.522,-3.429 8.335,-7.497c1.093,-5.462 2.162,-10.807 2.864,-14.317c0.247,-1.237 1.214,-2.204 2.451,-2.451l14.317,-2.863c4.068,-0.814 7.117,-4.205 7.497,-8.336c0.379,-4.132 -2.002,-8.021 -5.854,-9.562l-44.976,-17.99c-3.482,-1.393 -7.459,-0.577 -10.111,2.075c-2.652,2.652 -3.468,6.629 -2.075,10.111Zm5.803,-2.321c-0.465,-1.161 -0.193,-2.487 0.691,-3.37c0.884,-0.884 2.21,-1.157 3.371,-0.692l44.975,17.99c1.285,0.514 2.078,1.81 1.952,3.187c-0.127,1.377 -1.143,2.508 -2.499,2.779l-14.317,2.863c-3.711,0.742 -6.612,3.643 -7.354,7.355c-0.702,3.51 -1.771,8.855 -2.863,14.316c-0.271,1.356 -1.402,2.373 -2.779,2.499c-1.377,0.126 -2.673,-0.667 -3.187,-1.951l-17.99,-44.976Z"/><path d="M25.552,21.046l-4.419,-4.419c-1.22,-1.22 -3.2,-1.22 -4.419,-0c-1.22,1.219 -1.22,3.2 -0,4.419l4.419,4.42c1.22,1.219 3.2,1.219 4.419,-0c1.22,-1.22 1.22,-3.2 0,-4.42Z"/><path d="M59.847,55.34l-10.115,-10.114c-1.219,-1.22 -3.2,-1.22 -4.419,-0c-1.22,1.219 -1.22,3.2 -0,4.419l10.114,10.115c1.22,1.219 3.2,1.219 4.42,-0c1.219,-1.22 1.219,-3.2 -0,-4.42Z"/><path d="M57.49,25.466l4.42,-4.42c1.219,-1.219 1.219,-3.2 -0,-4.419c-1.22,-1.22 -3.2,-1.22 -4.42,-0l-4.419,4.419c-1.22,1.22 -1.22,3.2 -0,4.42c1.219,1.219 3.2,1.219 4.419,-0Z"/><path d="M19.397,63.558l4.42,-4.419c1.219,-1.22 1.219,-3.2 -0,-4.419c-1.22,-1.22 -3.2,-1.22 -4.42,-0l-4.419,4.419c-1.22,1.22 -1.22,3.2 -0,4.419c1.219,1.22 3.2,1.22 4.419,0Z"/><path d="M16.728,36.1l-6.25,-0c-1.725,-0 -3.125,1.4 -3.125,3.125c0,1.724 1.4,3.125 3.125,3.125l6.25,-0c1.725,-0 3.125,-1.401 3.125,-3.125c0,-1.725 -1.4,-3.125 -3.125,-3.125Z"/><path d="M42.437,17.051l-0,-6.25c-0,-1.724 -1.401,-3.125 -3.125,-3.125c-1.725,0 -3.125,1.401 -3.125,3.125l-0,6.25c-0,1.725 1.4,3.125 3.125,3.125c1.724,0 3.125,-1.4 3.125,-3.125Z"/></g></svg>